<?xml version="1.0" encoding="utf-8"?>
<!-- Generator: Adobe Illustrator 15.0.0, SVG Export Plug-In . SVG Version: 6.00 Build 0)  -->
<!DOCTYPE svg PUBLIC "-//W3C//DTD SVG 1.1//EN" "http://www.w3.org/Graphics/SVG/1.1/DTD/svg11.dtd">
<svg version="1.1" id="Layer_1" xmlns="http://www.w3.org/2000/svg" xmlns:xlink="http://www.w3.org/1999/xlink" x="0px" y="0px"
	 width="106px" height="105.701px" viewBox="0 0 106 105.701" enable-background="new 0 0 106 105.701" xml:space="preserve">
<g>
	<path fill="#FFFFFF" d="M53,23.746c-16.074,0-29.105,13.031-29.105,29.105S36.926,81.956,53,81.956s29.105-13.03,29.105-29.104
		S69.074,23.746,53,23.746z M53,48.008c2.675,0,4.844,2.168,4.844,4.844c0,2.675-2.169,4.843-4.844,4.843s-4.843-2.168-4.843-4.843
		C48.157,50.176,50.325,48.008,53,48.008z M50.5,29.685v12.71c-4.734,1.128-8.26,5.375-8.26,10.456c0,0.834,0.104,1.644,0.284,2.424
		L31.261,61.24c-1.005-2.604-1.563-5.431-1.563-8.389C29.698,40.827,38.807,30.933,50.5,29.685z M53,76.153
		c-8.126,0-15.278-4.163-19.448-10.47l11.199-5.93c1.974,2.355,4.935,3.856,8.249,3.856c3.314,0,6.275-1.501,8.249-3.856
		l11.198,5.93C68.278,71.99,61.127,76.153,53,76.153z M74.739,61.24l-11.264-5.966c0.18-0.779,0.284-1.588,0.284-2.423
		c0-5.081-3.525-9.328-8.26-10.456v-12.71c11.693,1.248,20.802,11.142,20.802,23.167C76.302,55.81,75.745,58.637,74.739,61.24z"/>
	<path fill="#FFFFFF" d="M105.977,54.397c0.016-0.514,0.023-1.028,0.023-1.546c0-0.519-0.008-1.033-0.023-1.548l-14.639-1.522
		c-0.051-0.639-0.115-1.271-0.197-1.899l14.009-4.535c-0.185-1.018-0.401-2.025-0.644-3.024l-14.637,1.556
		c-0.184-0.612-0.381-1.222-0.593-1.82l12.759-7.347c-0.393-0.955-0.809-1.898-1.256-2.825l-13.998,4.566
		c-0.307-0.56-0.627-1.11-0.959-1.653l10.947-9.838c-0.582-0.852-1.189-1.686-1.819-2.5l-12.741,7.374
		c-0.414-0.482-0.84-0.956-1.277-1.419l8.666-11.898c-0.745-0.713-1.514-1.401-2.3-2.07l-10.927,9.861
		c-0.506-0.388-1.02-0.763-1.545-1.125L80.83,7.742c-0.876-0.543-1.767-1.061-2.676-1.551l-8.64,11.918
		c-0.575-0.272-1.157-0.532-1.748-0.778l3.078-14.398c-0.968-0.346-1.948-0.663-2.94-0.953L61.93,15.438
		c-0.617-0.148-1.242-0.279-1.871-0.396l0.018-14.718C59.06,0.188,58.033,0.077,57,0l-3.045,14.404
		c-0.317-0.007-0.636-0.011-0.955-0.011c-0.319,0-0.638,0.004-0.955,0.011L49,0c-1.034,0.077-2.06,0.188-3.076,0.323l0.017,14.718
		c-0.629,0.117-1.253,0.248-1.87,0.396L38.097,1.979c-0.993,0.29-1.974,0.607-2.941,0.953l3.079,14.398
		c-0.591,0.246-1.174,0.506-1.749,0.778l-8.64-11.918c-0.909,0.49-1.799,1.008-2.675,1.551l6.004,13.441
		c-0.525,0.362-1.039,0.737-1.545,1.125l-10.927-9.861c-0.787,0.669-1.555,1.357-2.3,2.07l8.666,11.898
		c-0.438,0.463-0.863,0.937-1.277,1.419l-12.74-7.374c-0.631,0.814-1.238,1.648-1.821,2.5l10.949,9.838
		c-0.333,0.543-0.653,1.094-0.959,1.653L5.221,29.886c-0.447,0.927-0.864,1.87-1.256,2.825l12.759,7.347
		c-0.212,0.599-0.409,1.208-0.591,1.82L1.494,40.322c-0.242,0.999-0.458,2.007-0.644,3.024l14.009,4.535
		c-0.081,0.628-0.146,1.261-0.197,1.899L0.024,51.304C0.009,51.818,0,52.333,0,52.852c0,0.518,0.009,1.032,0.024,1.546l14.639,1.522
		c0.051,0.639,0.116,1.271,0.197,1.9L0.851,62.355c0.186,1.018,0.402,2.026,0.644,3.024l14.638-1.556
		c0.182,0.612,0.379,1.222,0.591,1.819L3.965,72.991c0.392,0.954,0.809,1.897,1.256,2.825L19.22,71.25
		c0.306,0.559,0.625,1.111,0.959,1.654L9.23,82.741c0.583,0.853,1.19,1.686,1.821,2.5l12.74-7.374
		c0.414,0.482,0.84,0.957,1.277,1.42l-8.666,11.899c0.746,0.71,1.514,1.399,2.3,2.067l10.927-9.86
		c0.506,0.387,1.02,0.763,1.545,1.124L25.17,97.961c0.876,0.542,1.766,1.06,2.675,1.552l8.64-11.92
		c0.575,0.272,1.158,0.532,1.749,0.777l-3.079,14.398c0.968,0.346,1.949,0.664,2.941,0.954l5.974-13.456
		c0.618,0.146,1.242,0.277,1.871,0.395l-0.017,14.719c1.016,0.135,2.042,0.245,3.076,0.321l3.044-14.402
		c0.317,0.006,0.636,0.012,0.955,0.012c0.319,0,0.638-0.006,0.955-0.012L57,105.701c1.033-0.076,2.06-0.187,3.076-0.321
		l-0.018-14.719c0.629-0.117,1.254-0.248,1.871-0.395l5.975,13.456c0.992-0.29,1.973-0.608,2.94-0.954L67.767,88.37
		c0.591-0.245,1.173-0.505,1.748-0.777l8.64,11.92c0.909-0.492,1.8-1.01,2.676-1.552l-6.004-13.443
		c0.525-0.361,1.039-0.737,1.545-1.124l10.927,9.861c0.786-0.669,1.555-1.356,2.3-2.068l-8.666-11.899
		c0.438-0.463,0.863-0.938,1.277-1.42l12.741,7.374c0.63-0.814,1.237-1.647,1.819-2.5l-10.947-9.837
		c0.332-0.543,0.652-1.095,0.959-1.654l13.998,4.566c0.447-0.928,0.863-1.871,1.256-2.825l-12.759-7.348
		c0.214-0.598,0.409-1.207,0.593-1.819l14.637,1.556c0.242-0.998,0.459-2.007,0.644-3.024L91.141,57.82
		c0.082-0.629,0.146-1.262,0.197-1.9L105.977,54.397z M53,87.337c-19.045,0-34.484-15.44-34.484-34.485
		c0-20.96,17.037-34.486,34.484-34.486c19.045,0,34.485,15.44,34.485,34.486C87.485,71.896,72.045,87.337,53,87.337z"/>
</g>
</svg>
